# xmcd
# 
# Track frame offsets:
#     150
#     24535
#     30647
#     68223
#     79951
#     96944
#     107152
#     130087
#     157833
#     193076
#     206877
#     262353
# 
# Disc length: 4164
# 
# Revision: 2
# Processed by: cddbd v1.5.2PL0 Copyright (c) Steve Scherf et al.
# Submitted via: fre:ac v1.0.31
# 
DISCID=ac10420c
DTITLE=Brad - After Bach
DYEAR=2018
DGENRE=Jazz
TTITLE0=Before Bach: Benediction
TTITLE1=Prelude No. 3 in C# Major from The Well-Tempered Clavier Book I, BWV 848TLE9=Fugue No. 16 in G Minor from The Well-Tempered Clavier Book II, BWV 885
TTITLE2=After Bach: Rondo
TTITLE3=Prelude No. 1 in C Major from The Well-Tempered Clavier Book II, BWV 870TLE9=Fugue No. 16 in G Minor from The Well-Tempered Clavier Book II, BWV 885
TTITLE4=After Bach: Pastorale
TTITLE5=Prelude No. 10 in E Minor from The Well-Tempered Clavier Book I, BWV 855TLE9=Fugue No. 16 in G Minor from The Well-Tempered Clavier Book II, BWV 885
TTITLE6=After Bach: Flux
TTITLE7=Prelude and Fugue No. 12 in F Minor from The Well-Tempered Clavier Book I, BWV 857TLE9=Fugue No. 16 in G Minor from The Well-Tempered Clavier Book II, BWV 885
TTITLE8=After Bach: Dream
TTITLE9=Fugue No. 16 in G Minor from The Well-Tempered Clavier Book II, BWV 885
TTITLE10=After Bach: Ostinato
TTITLE11=Prayer for Healing
EXTD=YEAR: 2018
EXTT0=Brad1
EXTT1=
EXTT2=
EXTT3=
EXTT4=
EXTT5=
EXTT6=
EXTT7=
EXTT8=
EXTT9=
EXTT10=
EXTT11=
PLAYORDER=
